<?xml version="1.0" encoding="UTF-8"?>
<svg version="1.1" xmlns="http://www.w3.org/2000/svg" width="1254" height="1254">
<path d="M0 0 C413.82 0 827.64 0 1254 0 C1254 413.82 1254 827.64 1254 1254 C840.18 1254 426.36 1254 0 1254 C0 840.18 0 426.36 0 0 Z " fill="#FDFDFD" transform="translate(0,0)"/>
<path d="M0 0 C24.76681008 -0.09380831 49.53359318 -0.16415693 74.30054569 -0.20724869 C85.80255669 -0.2277966 97.30445674 -0.25576703 108.80639648 -0.30175781 C118.84179991 -0.34186518 128.87712291 -0.36748913 138.91260427 -0.37635398 C144.21696946 -0.38152861 149.52110474 -0.39352506 154.82539558 -0.42292023 C204.70213711 -0.68831787 204.70213711 -0.68831787 224 7 C224.74507812 7.29261719 225.49015625 7.58523438 226.2578125 7.88671875 C245.10341029 15.9690358 260.72040941 27.32910073 270.3125 45.8125 C270.63822998 46.42746338 270.96395996 47.04242676 271.29956055 47.67602539 C276.6017211 58.44168661 277.53500763 69.85479636 277.4375 81.6875 C277.42847656 83.00532471 277.41945313 84.32314941 277.41015625 85.6809082 C276.92236972 113.25947794 266.22761061 138.19949969 247 158 C246.46246094 158.59941406 245.92492187 159.19882812 245.37109375 159.81640625 C237.36876596 168.46052474 226.73059375 175.30227463 216 180 C217.37520861 182.75041721 218.98373686 183.05582827 221.75 184.375 C229.28815609 188.3750385 235.0147624 194.01909953 241 200 C241.61875 200.59554687 242.2375 201.19109375 242.875 201.8046875 C256.96271587 216.58147643 259.55544713 237.08197665 259.28125 256.5234375 C258.39255771 281.3268393 248.77427356 307.54829908 232 326 C230.92105469 327.25490234 230.92105469 327.25490234 229.8203125 328.53515625 C206.37642858 355.42667016 171.99540386 369.75934679 137 374 C133.80815074 374.13548048 130.62086844 374.13089409 127.42652893 374.12025452 C126.00873191 374.12153615 126.00873191 374.12153615 124.56229252 374.12284368 C121.40552253 374.12448648 118.24880608 374.11899678 115.09204102 374.11352539 C112.82502748 374.11324323 110.55801385 374.11340181 108.29100037 374.1139679 C102.14284262 374.11425476 95.99470439 374.10837592 89.84655118 374.10139394 C83.41901832 374.09514196 76.99148501 374.09455514 70.56394958 374.09336853 C59.77773639 374.09061375 48.99153173 374.08436786 38.20532227 374.07543945 C27.09757523 374.06625448 15.98983014 374.05917895 4.88208008 374.05493164 C4.19691016 374.05466892 3.51174024 374.05440619 2.8058076 374.05413551 C-0.63163434 374.05283043 -4.06907629 374.05156673 -7.50651824 374.05032361 C-36.00435042 374.03996406 -64.50217483 374.02228261 -93 374 C-92.68622596 372.23351045 -92.37040314 370.46738474 -92.05371094 368.70141602 C-91.87805603 367.71786636 -91.70240112 366.73431671 -91.52142334 365.72096252 C-90.94637792 362.72018191 -90.16412348 359.85227092 -89.25 356.9375 C-86.89957595 348.99166347 -85.09038055 340.93768787 -83.28222656 332.85327148 C-82.00964234 327.2073661 -80.64791822 321.60229437 -79.13671875 316.01513672 C-77.08956918 308.39686031 -75.15594992 300.75250883 -73.25 293.09765625 C-72.90668057 291.72250286 -72.56325354 290.34737633 -72.21972656 288.97227478 C-71.32593389 285.39333837 -70.43355162 281.81405186 -69.54150391 278.23468018 C-68.64310336 274.63085047 -67.74337859 271.02735143 -66.84375 267.42382812 C-65.51489706 262.10052312 -64.1868025 256.77702983 -62.859375 251.45336914 C-62.23965558 248.96889474 -61.61986205 246.48443882 -61 244 C-60.7458816 242.98129727 -60.7458816 242.98129727 -60.48662949 241.94201469 C-58.55369316 234.19492575 -56.61814402 226.44870962 -54.6328125 218.71484375 C-54.43259995 217.93359131 -54.23238739 217.15233887 -54.02610779 216.34741211 C-53.60652399 214.71070265 -53.18669875 213.07405508 -52.76663208 211.43746948 C-52.10934928 208.87652064 -51.45297595 206.3153397 -50.79663086 203.75415039 C-48.92238699 196.44600619 -47.04394132 189.1392912 -45.12109375 181.84375 C-44.85216309 180.82289307 -44.58323242 179.80203613 -44.30615234 178.75024414 C-43.83685126 176.97518907 -43.36488104 175.20083556 -42.88916016 173.42749023 C-41.5954376 168.53948621 -40.47335463 163.63194515 -39.42163086 158.68579102 C-39.1545079 157.43177994 -38.88738495 156.17776886 -38.61216736 154.88575745 C-38.30914452 153.45730751 -38.30914452 153.45730751 -38 152 C-37.09922792 151.99853344 -36.19845585 151.99706688 -35.27038765 151.99555588 C-13.28272104 151.95839281 8.70479258 151.89925289 30.69233513 151.81609726 C41.32565414 151.77640444 51.9589002 151.7439626 62.59228516 151.72900391 C71.86778781 151.71593658 81.14312925 151.68884334 90.41854107 151.64538693 C95.32306955 151.62288573 100.22740005 151.60708245 105.13198471 151.60811615 C109.76304097 151.60886953 114.39366149 151.59065081 119.0246048 151.55883217 C120.71020896 151.55042154 122.39586252 151.54852187 124.08147812 151.55419731 C143.86711039 151.61186129 164.22275286 148.44225748 179.1015625 134.171875 C189.01888634 122.82613003 192.58008184 108.94942704 192.31640625 94.1484375 C191.56126597 86.63432555 188.46116735 80.22372529 183 75 C172.13624079 66.90304089 159.15197655 63.91179045 145.7802887 63.84178162 C145.08827093 63.83684364 144.39625316 63.83190566 143.68326515 63.82681805 C141.38332809 63.81155972 139.08341868 63.80311439 136.78344727 63.79467773 C135.12726095 63.78509002 133.47107704 63.77507942 131.81489563 63.76467896 C127.33199746 63.73772065 122.84908886 63.71666214 118.36615491 63.69667697 C113.6762893 63.67476124 108.98645551 63.64739996 104.2966156 63.62062073 C95.42162475 63.57076923 86.54661617 63.52580251 77.67159075 63.48259836 C67.56519098 63.43316141 57.45882315 63.37826728 47.3524543 63.32291877 C26.56833264 63.20921457 5.78418047 63.10235048 -15 63 C-14.42107432 58.60940143 -13.68211154 54.35865935 -12.60131836 50.06469727 C-12.32110336 48.94406387 -12.04088837 47.82343048 -11.75218201 46.6688385 C-11.45111038 45.48003586 -11.15003876 44.29123322 -10.83984375 43.06640625 C-10.53051407 41.83333237 -10.22118439 40.60025848 -9.90248108 39.32981873 C-9.08468168 36.07252019 -8.26383359 32.8160218 -7.44146729 29.55987549 C-6.60096729 26.2287186 -5.76452813 22.89654257 -4.92773438 19.56445312 C-3.28887604 13.04202842 -1.64598729 6.52062908 0 0 Z " fill="#082244" transform="translate(565,306)"/>
<path d="M0 0 C0.99 0.495 0.99 0.495 2 1 C1.79842285 1.79583496 1.5968457 2.59166992 1.38916016 3.41162109 C0.63051471 6.41177841 -0.12588862 9.41249026 -0.88085938 12.41357422 C-1.36420007 14.3321311 -1.85004037 16.25005772 -2.3359375 18.16796875 C-3.86414454 24.24895928 -5.30966833 30.31580796 -6.49584961 36.47241211 C-8.36711224 45.85409833 -10.77752646 55.09226733 -13.3125 64.3125 C-19.84480507 88.33771444 -25.71515406 112.53834822 -31.12524414 136.84033203 C-32.94043919 144.92926071 -34.96978683 152.9630718 -37 161 C-42.87618256 184.14139815 -42.87618256 184.14139815 -48.27709961 207.39697266 C-49.84784039 214.50772873 -51.62444337 221.5642503 -53.40411377 228.62493896 C-54.04267154 231.17007864 -54.6741243 233.71690758 -55.30419922 236.26416016 C-56.47165421 240.98325802 -57.65110442 245.69923963 -58.83666992 250.41381836 C-59.32614734 252.36859985 -59.81174035 254.32435756 -60.29370117 256.28100586 C-60.99976152 259.14432809 -61.71917248 262.00400193 -62.44140625 264.86328125 C-62.65398575 265.73817703 -62.86656525 266.61307281 -63.08558655 267.51448059 C-63.39622292 268.7280146 -63.39622292 268.7280146 -63.71313477 269.96606445 C-63.88982193 270.67503372 -64.06650909 271.38400299 -64.24855042 272.11445618 C-65.14238632 274.35727699 -66.13521988 275.47948916 -68 277 C-71.50643538 278.16881179 -74.24901468 278.11998427 -77.94995117 278.11352539 C-79.00399391 278.11374443 -79.00399391 278.11374443 -80.07933044 278.1139679 C-82.40057468 278.11327157 -84.72173854 278.10549226 -87.04296875 278.09765625 C-88.6529384 278.09579108 -90.26290861 278.09436764 -91.87287903 278.09336853 C-96.10942147 278.08955118 -100.3459296 278.07972755 -104.5824585 278.06866455 C-108.90587907 278.05843364 -113.22930519 278.05386731 -117.55273438 278.04882812 C-126.03517199 278.03810459 -134.51758173 278.02103753 -143 278 C-142.43539283 273.81903055 -141.78159874 269.71541581 -140.83374023 265.60449219 C-140.60211685 264.59727112 -140.37049347 263.59005005 -140.1318512 262.55230713 C-139.88080124 261.47801453 -139.62975128 260.40372192 -139.37109375 259.296875 C-139.10654892 258.15829041 -138.84200409 257.01970581 -138.56944275 255.84661865 C-135.83004449 244.1382287 -132.90959507 232.47657827 -129.96389771 220.81869507 C-125.58724437 203.49122565 -121.25752566 186.16190305 -117.27416992 168.73950195 C-115.18107538 159.63189332 -112.85950499 150.5930681 -110.48706055 141.5546875 C-107.33397908 129.52457888 -104.43546648 117.44148423 -101.72265625 105.3046875 C-99.7453557 96.46344716 -97.74709047 87.70993748 -95.07421875 79.046875 C-94.08515845 75.59395355 -93.42893429 72.10778125 -92.76953125 68.578125 C-92.53935303 67.41635742 -92.3091748 66.25458984 -92.07202148 65.05761719 C-91.61627281 62.7314632 -91.19373422 60.39849186 -90.80883789 58.05957031 C-89.21160545 50.13068408 -89.21160545 50.13068408 -85.99682617 47.13061523 C-83.39855383 45.55024969 -80.76152934 44.27249697 -78 43 C-76.01456487 41.90027695 -74.03696176 40.78632427 -72.06640625 39.66015625 C-69.89938814 38.45922052 -67.73137443 37.26007998 -65.5625 36.0625 C-64.38409329 35.41009753 -63.2057915 34.75750551 -62.02758789 34.10473633 C-59.58161804 32.74976306 -57.13520335 31.3955981 -54.68847656 30.04199219 C-48.76708226 26.76508891 -42.85282947 23.47533438 -36.9375 20.1875 C-34.70313494 18.94659669 -32.4687602 17.70571081 -30.234375 16.46484375 C-26.32618478 14.29382615 -22.41976029 12.1197069 -18.515625 9.94140625 C-17.27824585 9.25171753 -17.27824585 9.25171753 -16.01586914 8.5480957 C-14.52746832 7.71829313 -13.03961996 6.88749834 -11.55249023 6.05541992 C-9.70687031 5.02703859 -7.8555547 4.01032167 -6 3 C-4.33904297 2.09507812 -4.33904297 2.09507812 -2.64453125 1.171875 C-1.77183594 0.78515625 -0.89914062 0.3984375 0 0 Z " fill="#082244" transform="translate(505,402)"/>
<path d="M0 0 C1.00359055 -0.00426498 2.00718109 -0.00852997 3.04118347 -0.01292419 C4.15174606 -0.01247101 5.26230865 -0.01201782 6.40652466 -0.0115509 C7.5691835 -0.01490952 8.73184235 -0.01826813 9.92973328 -0.02172852 C13.13073387 -0.0296279 16.33169564 -0.03290792 19.53270483 -0.0335443 C21.53537748 -0.0342544 23.53804331 -0.03638815 25.54071426 -0.03904152 C32.53651612 -0.04830935 39.5322989 -0.05237538 46.52810669 -0.05158997 C53.03140185 -0.0509916 59.53461341 -0.06149213 66.03788745 -0.07733363 C71.62954466 -0.09046489 77.22117478 -0.0957714 82.81284726 -0.09513456 C86.14826601 -0.09488082 89.48355218 -0.09859503 92.81896591 -0.10831261 C96.55264836 -0.11816477 100.28611969 -0.11521286 104.01980591 -0.10920715 C105.65528633 -0.11763641 105.65528633 -0.11763641 107.32380676 -0.12623596 C122.68341169 -0.06379519 135.89989325 3.46300477 147.36013794 14.13371277 C155.00877123 23.19130482 155.59827446 35.343639 154.71365356 46.70744324 C153.30242938 56.39304126 147.85448357 65.9628728 141.36013794 73.13371277 C140.88576294 73.72152527 140.41138794 74.30933777 139.92263794 74.91496277 C131.87931033 84.08435625 117.92048886 89.45487299 105.94831276 90.40427208 C102.0469384 90.50086017 98.15187733 90.50572318 94.25003052 90.47428894 C92.76074236 90.4734409 91.27145296 90.47392125 89.78216553 90.47561646 C85.77250193 90.47647095 81.7631121 90.45893455 77.75351167 90.43789458 C73.55084289 90.41903593 69.3481666 90.41737015 65.14546204 90.41381836 C57.20196692 90.40452472 49.25859688 90.37994757 41.31515664 90.34976989 C32.26551464 90.316142 23.2158664 90.29971886 14.16617739 90.28468359 C-4.43590645 90.25339537 -23.03787417 90.20068751 -41.63986206 90.13371277 C-39.51778387 82.54427874 -39.51778387 82.54427874 -37.82736206 79.50871277 C-35.47829421 75.01142673 -33.74442689 70.32812932 -31.98361206 65.57511902 C-31.00826726 63.07721562 -29.99308488 60.65882505 -28.88986206 58.21965027 C-25.77846027 51.2941544 -22.98574244 44.23369367 -20.13986206 37.19621277 C-19.56577555 35.78014353 -18.99155761 34.36412756 -18.41720581 32.94816589 C-15.05130882 24.6457572 -11.68810866 16.34211126 -8.40939331 8.00480652 C-7.93566284 6.80017761 -7.93566284 6.80017761 -7.45236206 5.57121277 C-7.12880737 4.74492371 -6.80525269 3.91863464 -6.47189331 3.06730652 C-4.95976773 -0.44678814 -3.67169721 0.00701549 0 0 Z " fill="#FCFCFD" transform="translate(583.6398620605469,520.8662872314453)"/>
<path d="M0 0 C1.80140062 0.02516603 3.60283592 0.04796425 5.40429688 0.06835938 C9.74958042 0.12257878 14.09313794 0.2083686 18.4375 0.3125 C17.74391269 4.80079779 16.80054953 9.17671622 15.73046875 13.58984375 C15.56380203 14.27824844 15.39713531 14.96665314 15.22541809 15.67591858 C14.8725922 17.13095953 14.51870599 18.58574374 14.16381836 20.0402832 C13.63433501 22.21171675 13.10888627 24.38409566 12.58398438 26.55664062 C10.88228572 33.57526121 9.13762817 40.58183983 7.30078125 47.56640625 C6.99052002 48.74662354 6.68025879 49.92684082 6.3605957 51.14282227 C4.14721541 58.74301174 4.14721541 58.74301174 1.55932617 60.81958008 C0.40654175 61.44449341 0.40654175 61.44449341 -0.76953125 62.08203125 C-1.65125 62.56994141 -2.53296875 63.05785156 -3.44140625 63.56054688 C-4.40949219 64.07681641 -5.37757813 64.59308594 -6.375 65.125 C-7.38820313 65.68123047 -8.40140625 66.23746094 -9.4453125 66.81054688 C-11.64848671 68.01869622 -13.85519396 69.2204196 -16.06494141 70.41650391 C-19.62927485 72.34869806 -23.18191439 74.30076834 -26.73046875 76.26171875 C-27.63273193 76.76021584 -27.63273193 76.76021584 -28.55322266 77.26878357 C-29.77581136 77.94431477 -30.99836578 78.61990802 -32.22088623 79.29556274 C-34.06522592 80.31400525 -35.91061374 81.33052227 -37.75634766 82.34643555 C-45.61012001 86.67037499 -53.4430585 91.02935889 -61.25 95.4375 C-62.15105469 95.94539063 -63.05210937 96.45328125 -63.98046875 96.9765625 C-69.23408242 99.95150036 -74.41214619 103.02270019 -79.54223633 106.20654297 C-81.5625 107.3125 -81.5625 107.3125 -83.5625 107.3125 C-82.93423473 99.28279074 -81.06470088 91.71145045 -79.0703125 83.92578125 C-78.71961359 82.53743657 -78.36951741 81.14893951 -78.01998901 79.76029968 C-77.10229424 76.1197662 -76.17795853 72.48095546 -75.25170898 68.84259033 C-73.77541368 63.04009821 -72.30820065 57.23531165 -70.84310532 51.42998314 C-70.3366526 49.42787683 -69.82667873 47.42669449 -69.31619263 45.4256134 C-67.40910108 37.93844634 -67.40910108 37.93844634 -65.77218628 30.38948059 C-65.52509918 29.13769516 -65.27801208 27.88590973 -65.0234375 26.59619141 C-64.71116211 24.91331528 -64.71116211 24.91331528 -64.39257812 23.19644165 C-63.07453979 18.61717913 -60.60461764 16.59173405 -56.5625 14.3125 C-55.87833008 13.91530762 -55.19416016 13.51811523 -54.48925781 13.10888672 C-52.25643561 11.89898059 -49.99233721 10.81569814 -47.6875 9.75 C-46.58921875 9.20956055 -46.58921875 9.20956055 -45.46875 8.65820312 C-30.2914005 1.51368158 -16.58742461 -0.41000537 0 0 Z " fill="#065FFD" transform="translate(510.5625,305.6875)"/>
<path d="M0 0 C6.0225 -0.0825 12.045 -0.165 18.25 -0.25 C20.12461914 -0.28641602 21.99923828 -0.32283203 23.93066406 -0.36035156 C34.50371473 -0.4792181 43.85886029 0.11478916 53.0625 5.9375 C57.84920873 11.03302864 58.58549058 15.15890264 58.42578125 21.984375 C57.58154007 27.96377125 54.23237786 31.91656212 50 36 C50.886875 36.53625 51.77375 37.0725 52.6875 37.625 C59.28741479 42.18693635 59.28741479 42.18693635 61 46 C61.90098115 52.67236038 62.08210244 59.36951387 58 65 C53.76990195 70.22541524 48.18461919 73.41734637 41.49874878 74.3482666 C38.82236567 74.45893294 36.17397109 74.45124448 33.49609375 74.390625 C32.64019653 74.38659668 31.78429932 74.38256836 30.90246582 74.37841797 C27.74725481 74.35770695 24.59235271 74.30186374 21.4375 74.25 C14.363125 74.1675 7.28875 74.085 0 74 C0 49.58 0 25.16 0 0 Z " fill="#0F2748" transform="translate(625,771)"/>
<path d="M0 0 C43.62857143 0 43.62857143 0 54.4140625 8.2421875 C58.70396167 12.99700185 59.4799696 17.79513046 59.375 24 C59.38660156 24.68578125 59.39820313 25.3715625 59.41015625 26.078125 C59.37501451 32.21621527 57.64561029 36.13786204 53.625 40.6875 C51.1906904 42.83201084 48.84420236 44.45600443 46 46 C47.73678415 51.09730732 50.60890624 55.45654822 53.4375 60 C54.41547475 61.58326529 55.39334228 63.16659681 56.37109375 64.75 C56.80349365 65.44609375 57.23589355 66.1421875 57.68139648 66.859375 C59.14029887 69.22776161 60.56884598 71.61474331 62 74 C56.06 74 50.12 74 44 74 C42.80375 71.89625 41.6075 69.7925 40.375 67.625 C37.35639725 62.31856188 34.25808136 57.07415198 31.03125 51.890625 C30 50 30 50 30 48 C25.05 48 20.1 48 15 48 C15 56.58 15 65.16 15 74 C10.05 74 5.1 74 0 74 C0 49.58 0 25.16 0 0 Z " fill="#0C2446" transform="translate(488,771)"/>
<path d="M0 0 C4.95 0 9.9 0 15 0 C15 24.42 15 48.84 15 74 C2 74 2 74 -1.65625 70.9140625 C-2.64793107 69.51437646 -3.59441033 68.0818664 -4.5 66.625 C-5.02424561 65.86493652 -5.54849121 65.10487305 -6.08862305 64.32177734 C-7.19372475 62.71695604 -8.28165453 61.10018858 -9.35302734 59.47265625 C-11.52413872 56.21309266 -13.83042835 53.06269054 -16.14453125 49.90380859 C-17.72090634 47.75013688 -19.27964832 45.585068 -20.83203125 43.4140625 C-24.53155582 38.25936119 -28.26812462 33.13132865 -32 28 C-32.33 43.18 -32.66 58.36 -33 74 C-37.95 74 -42.9 74 -48 74 C-48 49.91 -48 25.82 -48 1 C-34 1 -34 1 -30.1328125 4.41796875 C-29.08322449 5.97719396 -28.08241179 7.57003874 -27.125 9.1875 C-25.97864275 10.92541286 -24.82875779 12.66100273 -23.67578125 14.39453125 C-23.08748535 15.30799316 -22.49918945 16.22145508 -21.89306641 17.16259766 C-18.60991828 22.08350912 -14.94428116 26.70891321 -11.3125 31.375 C-9.97192509 33.10940631 -8.63447172 34.84623176 -7.30078125 36.5859375 C-6.73528564 37.3186084 -6.16979004 38.0512793 -5.5871582 38.80615234 C-3.92016901 41.11034629 -2.46321025 43.56131624 -1 46 C-0.67 30.82 -0.34 15.64 0 0 Z " fill="#0C2445" transform="translate(269,771)"/>
<path d="M0 0 C4.95 0 9.9 0 15 0 C15 24.42 15 48.84 15 74 C2 74 2 74 -1.10546875 71.6484375 C-1.79253906 70.56820312 -2.47960937 69.48796875 -3.1875 68.375 C-3.58291992 67.7867041 -3.97833984 67.1984082 -4.38574219 66.59228516 C-5.21325747 65.35820802 -6.02330517 64.11224752 -6.81591797 62.85546875 C-8.30704149 60.51886281 -9.91560889 58.28309869 -11.54272461 56.04003906 C-12.7732645 54.34291428 -13.98501575 52.6334823 -15.1953125 50.921875 C-20.68670196 43.20227208 -26.36941743 35.61784701 -32 28 C-32.33 43.18 -32.66 58.36 -33 74 C-37.95 74 -42.9 74 -48 74 C-48 49.91 -48 25.82 -48 1 C-34 1 -34 1 -30.2890625 4.11328125 C-29.35310102 5.48142891 -28.46580435 6.8838993 -27.625 8.3125 C-27.13644531 9.04726563 -26.64789062 9.78203125 -26.14453125 10.5390625 C-25.17035437 12.00675379 -24.21429277 13.48665881 -23.27832031 14.97900391 C-21.63551377 17.57624465 -19.83436653 20.03530588 -18 22.5 C-17.39027344 23.34304688 -16.78054688 24.18609375 -16.15234375 25.0546875 C-13.31799491 28.93327013 -10.4431545 32.78073433 -7.5625 36.625 C-7.02947266 37.33720703 -6.49644531 38.04941406 -5.94726562 38.78320312 C-5.45033203 39.44513672 -4.95339844 40.10707031 -4.44140625 40.7890625 C-3.77153687 41.68165771 -3.77153687 41.68165771 -3.08813477 42.59228516 C-2.06553655 43.97679934 -2.06553655 43.97679934 -1 45 C-0.67 30.15 -0.34 15.3 0 0 Z " fill="#0C2445" transform="translate(901,771)"/>
<path d="M0 0 C17.16 0 34.32 0 52 0 C52 4.29 52 8.58 52 13 C39.79 13 27.58 13 15 13 C15 18.61 15 24.22 15 30 C25.89 30 36.78 30 48 30 C48 34.29 48 38.58 48 43 C37.44 43 26.88 43 16 43 C16 48.94 16 54.88 16 61 C28.21 61 40.42 61 53 61 C53 65.29 53 69.58 53 74 C35.51 74 18.02 74 0 74 C0 49.58 0 25.16 0 0 Z " fill="#102849" transform="translate(403,771)"/>
<path d="M0 0 C17.16 0 34.32 0 52 0 C52 3.96 52 7.92 52 12 C39.79 12 27.58 12 15 12 C15 17.61 15 23.22 15 29 C25.56 29 36.12 29 47 29 C47 33.29 47 37.58 47 42 C36.44 42 25.88 42 15 42 C15 47.94 15 53.88 15 60 C27.54 60 40.08 60 53 60 C53 64.29 53 68.58 53 73 C35.51 73 18.02 73 0 73 C0 48.91 0 24.82 0 0 Z " fill="#0B2445" transform="translate(952,772)"/>
<path d="M0 0 C18.15 0 36.3 0 55 0 C55 13.74753503 55 13.74753503 48.75 20.75 C47.45685587 22.30085257 46.16521645 23.85296092 44.875 25.40625 C44.22273437 26.17324219 43.57046875 26.94023438 42.8984375 27.73046875 C40.04776942 31.13836618 37.39551658 34.68199868 34.75 38.25 C34.31655273 38.82588867 33.88310547 39.40177734 33.43652344 39.99511719 C28.50172112 46.57848482 23.78502623 53.30096327 19 60 C31.54 60 44.08 60 57 60 C57 64.29 57 68.58 57 73 C37.86 73 18.72 73 -1 73 C-1 59.54363636 -1 59.54363636 2.625 55.4375 C3.44355469 54.45523438 4.26210938 53.47296875 5.10546875 52.4609375 C5.5648584 51.92178711 6.02424805 51.38263672 6.49755859 50.82714844 C9.47909601 47.20124235 12.17927001 43.35908289 14.9375 39.5625 C19.9046781 32.79242518 24.95194501 26.0948521 30.109375 19.46875 C31.46959293 17.69259766 32.7590438 15.8614343 34 14 C34.66 14 35.32 14 36 14 C36 13.34 36 12.68 36 12 C24.12 12 12.24 12 0 12 C0 8.04 0 4.08 0 0 Z " fill="#0C2446" transform="translate(766,772)"/>
<path d="M0 0 C-0.45261358 1.43931117 -0.91232979 2.87638999 -1.375 4.3125 C-1.63023438 5.11300781 -1.88546875 5.91351562 -2.1484375 6.73828125 C-3 9 -3 9 -5 12 C-5.61875 11.731875 -6.2375 11.46375 -6.875 11.1875 C-13.93183334 8.50590333 -20.38509831 6.22560322 -28 7 C-30.36293002 8.15632746 -32.14983755 9.14983755 -34 11 C-34.36158094 14.25422847 -34.52738334 16.23822407 -32.62890625 18.98046875 C-28.69724699 22.00077757 -24.33450489 23.08714853 -19.625 24.5 C-11.11509547 27.07412858 -4.1579684 29.26304741 1 37 C3.64387371 42.94871585 3.85301321 48.88180431 2 55.0625 C-0.59106687 61.21325686 -5.90695261 65.43958402 -12 67.9375 C-24.26750507 71.36049535 -37.12562417 69.31526014 -48.125 63.3125 C-49.42249256 62.55151388 -50.71650221 61.78435976 -52 61 C-51.21258341 56.2009031 -49.50483074 53.12085057 -47 49 C-43.75191676 49.6393286 -41.45076601 50.86993367 -38.625 52.5625 C-32.33518841 55.78684621 -25.93275593 56.01578841 -19 55 C-16.10669101 53.86670347 -16.10669101 53.86670347 -14 52 C-13.29009061 50.07088828 -13.29009061 50.07088828 -13.5 48 C-13.5103125 47.319375 -13.520625 46.63875 -13.53125 45.9375 C-14.16358775 43.32383732 -14.80236138 42.5830073 -17 41 C-19.5244285 40.11172209 -21.99088236 39.33983259 -24.5625 38.625 C-34.26540619 35.73398343 -43.2631885 32.93333746 -49 24 C-50.78244185 18.65267444 -51.02356669 12.24616865 -49.31640625 6.83203125 C-46.1992049 0.97272747 -40.94002576 -3.38953946 -34.65625 -5.4921875 C-22.03874141 -7.90435826 -11.31439441 -5.74781592 0 0 Z " fill="#0C2547" transform="translate(1084,777)"/>
<path d="M0 0 C19.47 0 38.94 0 59 0 C59 3.96 59 7.92 59 12 C51.74 12 44.48 12 37 12 C37 32.13 37 52.26 37 73 C32.05 73 27.1 73 22 73 C22 52.87 22 32.74 22 12 C14.74 12 7.48 12 0 12 C0 8.04 0 4.08 0 0 Z " fill="#082042" transform="translate(314,772)"/>
<path d="M0 0 C4.95 0 9.9 0 15 0 C15 24.42 15 48.84 15 74 C10.05 74 5.1 74 0 74 C0 49.58 0 25.16 0 0 Z " fill="#0F2748" transform="translate(718,771)"/>
<path d="M0 0 C4.95 0 9.9 0 15 0 C15 24.42 15 48.84 15 74 C10.05 74 5.1 74 0 74 C0 49.58 0 25.16 0 0 Z " fill="#0D2445" transform="translate(169,771)"/>
<path d="M0 0 C8 0 8 0 9.82617188 1.52880859 C10.20322266 2.22828613 10.58027344 2.92776367 10.96875 3.6484375 C11.39414062 4.40640625 11.81953125 5.164375 12.2578125 5.9453125 C12.66773438 6.74710938 13.07765625 7.54890625 13.5 8.375 C13.94085938 9.1690625 14.38171875 9.963125 14.8359375 10.78125 C18 16.57875582 18 16.57875582 18 19 C18.66 19 19.32 19 20 19 C20.24492187 18.32582031 20.48984375 17.65164063 20.7421875 16.95703125 C22.27261836 13.35909286 24.15843308 10.06123937 26.125 6.6875 C26.49753906 6.04232422 26.87007813 5.39714844 27.25390625 4.73242188 C28.16632213 3.15324055 29.08275509 1.57638136 30 0 C32.97 0 35.94 0 39 0 C39 12.21 39 24.42 39 37 C36.69 37 34.38 37 32 37 C30.38219843 35.38219843 30.77727853 33.54364482 30.68359375 31.30859375 C30.64169922 30.36435547 30.59980469 29.42011719 30.55664062 28.44726562 C30.51732422 27.45404297 30.47800781 26.46082031 30.4375 25.4375 C30.39431641 24.44041016 30.35113281 23.44332031 30.30664062 22.41601562 C30.20019833 19.94418889 30.09956241 17.4721134 30 15 C27.03 19.62 24.06 24.24 21 29 C16 28 16 28 13.76171875 24.83984375 C13.04992902 23.55010353 12.36255771 22.24684012 11.6875 20.9375 C10.470625 18.648125 9.25375 16.35875 8 14 C7.67 21.26 7.34 28.52 7 36 C4.69 36 2.38 36 0 36 C0 24.12 0 12.24 0 0 Z " fill="#0F66FD" transform="translate(295,899)"/>
<path d="M0 0 C3.485625 -0.12375 6.97125 -0.2475 10.5625 -0.375 C11.64732666 -0.42962402 12.73215332 -0.48424805 13.84985352 -0.54052734 C18.79167033 -0.62508055 22.21182145 -0.43491685 26.171875 2.70703125 C28.1712572 4.74340006 28.94965918 5.84134291 29.82421875 8.59765625 C29.52696019 13.95680345 29.10031125 17.14088353 25 21 C24.34 21.66 23.68 22.32 23 23 C23.5053125 23.77085937 24.010625 24.54171875 24.53125 25.3359375 C25.1809375 26.33882812 25.830625 27.34171875 26.5 28.375 C27.1496875 29.37273438 27.799375 30.37046875 28.46875 31.3984375 C30 34 30 34 30 36 C24.99940723 36.96502667 24.99940723 36.96502667 22 36 C18.96681631 32.54727315 15 27.77479909 15 23 C12.36 23 9.72 23 7 23 C7 27.29 7 31.58 7 36 C4.69 36 2.38 36 0 36 C0 24.12 0 12.24 0 0 Z " fill="#0E66FD" transform="translate(750,899)"/>
<path d="M0 0 C2.97 0 5.94 0 9 0 C11.94953463 5.68148063 14.64719027 11.37100103 16.953125 17.34375 C18.54606623 21.38554117 20.30403302 25.35679829 22.046875 29.3359375 C23 32 23 32 23 36 C20.69 36 18.38 36 16 36 C14.74335022 33.09399739 14 31.20395416 14 28 C5.585 28.495 5.585 28.495 -3 29 C-4.485 32.465 -4.485 32.465 -6 36 C-8.31 36 -10.62 36 -13 36 C-11.42703759 27.20714014 -7.63087601 19.00484382 -4.171875 10.81640625 C-2.68495163 7.24283376 -1.32823298 3.63516394 0 0 Z " fill="#136AFD" transform="translate(519,899)"/>
<path d="M0 0 C0.99 0.515625 1.98 1.03125 3 1.5625 C3.66 1.8925 4.32 2.2225 5 2.5625 C4.34 4.2125 3.68 5.8625 3 7.5625 C1.68 7.5625 0.36 7.5625 -1 7.5625 C-1.33 7.2325 -1.66 6.9025 -2 6.5625 C-9.16677935 5.65867761 -9.16677935 5.65867761 -15.90625 7.62109375 C-18.40041418 10.29651986 -19.30891716 13.01381871 -19.5 16.5625 C-19.18504715 21.39795257 -17.43065115 25.13184885 -14 28.5625 C-10.87185486 28.80610073 -10.87185486 28.80610073 -7.375 28.6875 C-6.18648438 28.66945313 -4.99796875 28.65140625 -3.7734375 28.6328125 C-2.40058594 28.59800781 -2.40058594 28.59800781 -1 28.5625 C-1 26.2525 -1 23.9425 -1 21.5625 C-3.64 21.5625 -6.28 21.5625 -9 21.5625 C-9 19.5825 -9 17.6025 -9 15.5625 C-4.05 15.5625 0.9 15.5625 6 15.5625 C6 21.1725 6 26.7825 6 32.5625 C-1.37667342 36.17556453 -8.88664016 36.79367578 -17 35.5625 C-21.83916115 33.1357609 -24.28360395 29.77141833 -27 25.1875 C-28.42547733 20.02014469 -29.21709606 15.45960471 -27.0859375 10.38671875 C-21.21851313 0.33638862 -11.34703088 -4.88685153 0 0 Z " fill="#0F67FD" transform="translate(463,899.4375)"/>
<path d="M0 0 C8.58 0 17.16 0 26 0 C26 2.31 26 4.62 26 7 C20.06 7 14.12 7 8 7 C8 9.64 8 12.28 8 15 C13.28 15 18.56 15 24 15 C24 17.31 24 19.62 24 22 C18.72 22 13.44 22 8 22 C8 24.97 8 27.94 8 31 C14.27 31 20.54 31 27 31 C27 32.98 27 34.96 27 37 C18.09 37 9.18 37 0 37 C0 24.79 0 12.58 0 0 Z " fill="#1D6FFC" transform="translate(373,898)"/>
<path d="M0 0 C2.805 -0.061875 5.61 -0.12375 8.5 -0.1875 C9.8003418 -0.22846802 9.8003418 -0.22846802 11.12695312 -0.27026367 C16.75755966 -0.3296071 20.89355006 0.57669577 26 3 C28.96828383 7.45242574 28.63369224 11.77776513 28 17 C25.90219061 20.61691275 24.95125774 21.68291409 21 23 C19.37280518 23.08143855 17.74248281 23.1075302 16.11328125 23.09765625 C15.26805908 23.09515869 14.42283691 23.09266113 13.55200195 23.09008789 C12.48296631 23.08098389 11.41393066 23.07187988 10.3125 23.0625 C5.2078125 23.0315625 5.2078125 23.0315625 0 23 C0 15.41 0 7.82 0 0 Z " fill="#F7F8F9" transform="translate(503,784)"/>
<path d="M0 0 C8.58 0 17.16 0 26 0 C26 2.31 26 4.62 26 7 C19.73 7 13.46 7 7 7 C7 9.97 7 12.94 7 16 C12.28 16 17.56 16 23 16 C23 17.65 23 19.3 23 21 C17.72 21 12.44 21 7 21 C7 24.3 7 27.6 7 31 C13.27 31 19.54 31 26 31 C26 32.98 26 34.96 26 37 C17.42 37 8.84 37 0 37 C0 24.79 0 12.58 0 0 Z " fill="#176CFD" transform="translate(686,898)"/>
<path d="M0 0 C0.763125 0.495 1.52625 0.99 2.3125 1.5 C1.9825 3.15 1.6525 4.8 1.3125 6.5 C0.3225 6.83 -0.6675 7.16 -1.6875 7.5 C-2.6775 6.84 -3.6675 6.18 -4.6875 5.5 C-7.44770996 5.12832816 -9.87602476 5.32149364 -12.6875 5.5 C-13.3475 6.16 -14.0075 6.82 -14.6875 7.5 C-14.81267689 9.58045621 -14.81267689 9.58045621 -13.6875 11.5 C-11.10862426 12.61526633 -11.10862426 12.61526633 -8 13.3125 C-2.89458677 14.86420486 0.25402506 16.33233821 3.37109375 20.71484375 C4.96703737 23.74117667 5.20004111 25.15465274 4.3125 28.5 C2.47578078 31.90751613 0.5246051 34.31360913 -2.6875 36.5 C-9.68935291 38.00381793 -16.38306148 36.71169509 -22.6875 33.5 C-23.1825 32.015 -23.1825 32.015 -23.6875 30.5 C-22.3675 29.18 -21.0475 27.86 -19.6875 26.5 C-18.676875 26.83 -17.66625 27.16 -16.625 27.5 C-12.93270089 28.57001321 -9.53501793 28.65704155 -5.6875 28.5 C-5.3575 26.85 -5.0275 25.2 -4.6875 23.5 C-9.19843949 21.50019801 -9.19843949 21.50019801 -13.828125 19.80859375 C-17.24236276 18.70212781 -19.2630895 17.97746182 -21.6875 15.25 C-22.97197587 11.71769135 -23.15438897 9.23511175 -22.6875 5.5 C-17.53244683 -2.78490689 -8.61999223 -3.50643752 0 0 Z " fill="#1F70FC" transform="translate(643.6875,899.5)"/>
<path d="M0 0 C3.68928712 -0.1626298 7.37135149 -0.28121401 11.0625 -0.375 C12.10083984 -0.42527344 13.13917969 -0.47554687 14.20898438 -0.52734375 C20.52904798 -0.64772591 24.1892908 -0.09019108 28.81518555 4.35888672 C30 6 30 6 30.75 9.5 C29.76249333 14.10836444 28.40064353 15.75393118 25 19 C21.99428661 20.0630443 19.18508983 20.11698226 16.015625 20.09765625 C15.08105469 20.09443359 14.14648438 20.09121094 13.18359375 20.08789062 C11.73146484 20.07532227 11.73146484 20.07532227 10.25 20.0625 C9.26644531 20.05798828 8.28289063 20.05347656 7.26953125 20.04882812 C4.84632806 20.037065 2.42315623 20.01913018 0 20 C0 13.4 0 6.8 0 0 Z " fill="#F5F6F7" transform="translate(641,813)"/>
<path d="M0 0 C1.92578125 0.80859375 1.92578125 0.80859375 4.73828125 2.30859375 C4.07828125 4.28859375 3.41828125 6.26859375 2.73828125 8.30859375 C0.56953873 7.80255383 -1.26139502 7.30875562 -3.26171875 6.30859375 C-7.91447851 6.00333155 -7.91447851 6.00333155 -12.26171875 7.30859375 C-12.91726994 9.8359261 -12.91726994 9.8359261 -13.26171875 12.30859375 C-12.60945312 12.49035156 -11.9571875 12.67210937 -11.28515625 12.859375 C1.94815148 16.66541484 1.94815148 16.66541484 5.73828125 21.30859375 C6.42698966 24.37334615 6.32816077 27.22931441 5.73828125 30.30859375 C2.87770646 33.94229686 -0.20354396 37.04981739 -4.93359375 37.64453125 C-11.65545257 37.72983403 -15.78284065 37.29323237 -21.26171875 33.30859375 C-20.93171875 31.65859375 -20.60171875 30.00859375 -20.26171875 28.30859375 C-17.26171875 27.30859375 -17.26171875 27.30859375 -14.01171875 28.24609375 C-10.23094326 29.31731347 -7.16614452 29.46795807 -3.26171875 29.30859375 C-2.93171875 27.65859375 -2.60171875 26.00859375 -2.26171875 24.30859375 C-2.92558594 24.04304687 -3.58945312 23.7775 -4.2734375 23.50390625 C-8.26757812 21.90625 -8.26757812 21.90625 -12.26171875 20.30859375 C-13.15890625 19.96699219 -14.05609375 19.62539063 -14.98046875 19.2734375 C-17.93607782 18.02337681 -18.84792981 17.21058158 -20.26171875 14.30859375 C-21.08688247 10.33418135 -21.26065356 6.92732969 -19.078125 3.390625 C-13.77695642 -1.96139412 -6.9691887 -2.13047737 0 0 Z " fill="#1268FC" transform="translate(955.26171875,898.69140625)"/>
<path d="M0 0 C2.64 0 5.28 0 8 0 C9.50827797 3.76757497 11.00518994 7.53956349 12.5 11.3125 C12.92925781 12.38435547 13.35851562 13.45621094 13.80078125 14.56054688 C14.20683594 15.58857422 14.61289062 16.61660156 15.03125 17.67578125 C15.40830078 18.62364502 15.78535156 19.57150879 16.17382812 20.5480957 C17 23 17 23 17 26 C17.66 26 18.32 26 19 26 C19.08121094 25.22398437 19.16242187 24.44796875 19.24609375 23.6484375 C20.26578786 18.71375203 22.14359163 14.27147588 24.0625 9.625 C24.43955078 8.69816406 24.81660156 7.77132812 25.20507812 6.81640625 C26.13126396 4.54197521 27.06302668 2.27000333 28 0 C30.64 0 33.28 0 36 0 C33.51463577 7.86325133 30.45292227 15.44039125 27.3125 23.0625 C26.79595529 24.32215549 26.2796773 25.58192038 25.76367188 26.84179688 C24.51172398 29.8956137 23.25710616 32.94830382 22 36 C19.36 36 16.72 36 14 36 C12.41414625 32.37609762 10.83179067 28.7506775 9.25 25.125 C8.58484375 23.60519531 8.58484375 23.60519531 7.90625 22.0546875 C5.78848818 17.19629274 3.69172745 12.32969992 1.671875 7.4296875 C1.34799805 6.64577637 1.02412109 5.86186523 0.69042969 5.05419922 C0 3 0 3 0 0 Z " fill="#0E68FD" transform="translate(815,899)"/>
<path d="M0 0 C3.56377018 -0.13510502 7.12241117 -0.23417099 10.6875 -0.3125 C12.19860352 -0.3753418 12.19860352 -0.3753418 13.74023438 -0.43945312 C21.19231472 -0.56242475 21.19231472 -0.56242475 25.203125 2.23046875 C27.10654247 5.16421438 27.58183125 6.22892372 27.0625 9.625 C26.97097656 10.38039063 26.87945313 11.13578125 26.78515625 11.9140625 C25.74010473 14.69046802 24.51869115 15.46414682 22 17 C19.52636719 17.34057617 19.52636719 17.34057617 16.796875 17.29296875 C15.32734375 17.2784668 15.32734375 17.2784668 13.828125 17.26367188 C12.30445313 17.2259668 12.30445313 17.2259668 10.75 17.1875 C9.71875 17.17396484 8.6875 17.16042969 7.625 17.14648438 C5.08310951 17.11118034 2.5414881 17.05737473 0 17 C0 11.39 0 5.78 0 0 Z " fill="#F9FAFA" transform="translate(641,784)"/>
<path d="M0 0 C2.97 0 5.94 0 9 0 C9 12.21 9 24.42 9 37 C6.69 37 4.38 37 2 37 C0.38219843 35.38219843 0.77727853 33.54364482 0.68359375 31.30859375 C0.62075195 29.89223633 0.62075195 29.89223633 0.55664062 28.44726562 C0.51732422 27.45404297 0.47800781 26.46082031 0.4375 25.4375 C0.39431641 24.44041016 0.35113281 23.44332031 0.30664062 22.41601562 C0.20019702 19.9441585 0.09818072 17.4721969 0 15 C-2.46800047 16.15173355 -4.04783565 17.04783565 -6 19 C-6.66 18.67 -7.32 18.34 -8 18 C-7.44007826 13.33865152 -6.2085297 9.76599318 -4 5.625 C-3.46375 4.56539062 -2.9275 3.50578125 -2.375 2.4140625 C-1.59125 1.61742187 -0.8075 0.82078125 0 0 Z " fill="#1C71FD" transform="translate(325,899)"/>
<path d="M0 0 C0.763125 0.495 1.52625 0.99 2.3125 1.5 C1.9825 3.15 1.6525 4.8 1.3125 6.5 C0.3225 6.83 -0.6675 7.16 -1.6875 7.5 C-2.6775 6.84 -3.6675 6.18 -4.6875 5.5 C-7.44770996 5.12832816 -9.87602476 5.32149364 -12.6875 5.5 C-13.3475 6.16 -14.0075 6.82 -14.6875 7.5 C-14.45522303 9.90019534 -13.87216347 11.25070431 -12.4375 13.1875 C-10.24622304 14.83095772 -8.37424602 15.13692621 -5.6875 15.5 C-7.33297987 17.48193582 -8.24625703 18.40980116 -10.80859375 18.93359375 C-17.09523976 18.94419518 -17.09523976 18.94419518 -20.1875 16.625 C-22.906956 12.77243733 -23.08904756 10.23826123 -22.6875 5.5 C-17.53244683 -2.78490689 -8.61999223 -3.50643752 0 0 Z " fill="#1068FD" transform="translate(643.6875,899.5)"/>
<path d="M0 0 C2.31 0 4.62 0 7 0 C7 11.88 7 23.76 7 36 C4.69 36 2.38 36 0 36 C0 24.12 0 12.24 0 0 Z " fill="#0C64FD" transform="translate(888,899)"/>
<path d="M0 0 C10.625 -0.25 10.625 -0.25 14 2 C14.39095659 5.06249332 14.63657259 7.08452771 12.83203125 9.6796875 C9.18837363 12.30560706 4.28989285 11.15140798 0 11 C0 7.37 0 3.74 0 0 Z " fill="#F5F9FE" transform="translate(758,905)"/>
<path d="M0 0 C6.6 0 13.2 0 20 0 C20 0.33 20 0.66 20 1 C18.02 1.33 16.04 1.66 14 2 C14 2.66 14 3.32 14 4 C14.66 4.66 15.32 5.32 16 6 C12.7 6 9.4 6 6 6 C6 9.63 6 13.26 6 17 C9.3 17 12.6 17 16 17 C16 17.33 16 17.66 16 18 C12.37 18 8.74 18 5 18 C4.34 16.02 3.68 14.04 3 12 C2.67 12 2.34 12 2 12 C1.67 15.3 1.34 18.6 1 22 C0.67 22 0.34 22 0 22 C0 14.74 0 7.48 0 0 Z " fill="#2778FD" transform="translate(752,899)"/>
<path d="M0 0 C2.5630095 0.76703204 4.60716631 1.75373245 7 3 C7.66 3.33 8.32 3.66 9 4 C8.34 5.65 7.68 7.3 7 9 C5.68 9 4.36 9 3 9 C2.67 8.67 2.34 8.34 2 8 C0.31816052 7.76712992 -1.3712416 7.58735834 -3.0625 7.4375 C-3.98160156 7.35371094 -4.90070313 7.26992188 -5.84765625 7.18359375 C-6.91306641 7.09271484 -6.91306641 7.09271484 -8 7 C-8 6.67 -8 6.34 -8 6 C-4.535 5.505 -4.535 5.505 -1 5 C-1.99 4.34 -2.98 3.68 -4 3 C-3.67 2.67 -3.34 2.34 -3 2 C-6.3 2 -9.6 2 -13 2 C-8.73615229 -0.84256514 -5.00648592 -0.51581976 0 0 Z " fill="#2674FC" transform="translate(459,898)"/>
<path d="M0 0 C0.66 0 1.32 0 2 0 C2.67057887 1.7902061 3.3363469 3.58221489 4 5.375 C4.556875 6.87160156 4.556875 6.87160156 5.125 8.3984375 C6 11 6 11 6 13 C2.7 13 -0.6 13 -4 13 C-3.52343588 11.20763933 -3.04366502 9.41613103 -2.5625 7.625 C-2.29566406 6.62726562 -2.02882813 5.62953125 -1.75390625 4.6015625 C-1 2 -1 2 0 0 Z " fill="#E8F1FD" transform="translate(523,908)"/>
<path d="M0 0 C0 1.65 0 3.3 0 5 C-5.28 5 -10.56 5 -16 5 C-16 3.68 -16 2.36 -16 1 C-13.70839646 0.83246763 -11.41671509 0.66599948 -9.125 0.5 C-7.84882812 0.4071875 -6.57265625 0.314375 -5.2578125 0.21875 C-3.50763316 0.10123196 -1.75412035 0 0 0 Z " fill="#065EFC" transform="translate(709,914)"/>
<path d="M0 0 C4.95 1.98 4.95 1.98 10 4 C6.46603949 7.53396051 4.87997262 7.7385729 0 8 C-0.99 7.34 -1.98 6.68 -3 6 C-1.125 1.125 -1.125 1.125 0 0 Z " fill="#0B64FC" transform="translate(623,926)"/>
<path d="M0 0 C1.32 1.32 2.64 2.64 4 4 C3.01 4.33 2.02 4.66 1 5 C1 18.2 1 31.4 1 45 C0.67 45 0.34 45 0 45 C0 30.15 0 15.3 0 0 Z " fill="#F6F7F8" transform="translate(236,798)"/>
<path d="M0 0 C0.99 0 1.98 0 3 0 C2.68917128 1.75029762 2.37626821 3.50022694 2.0625 5.25 C1.88847656 6.22453125 1.71445312 7.1990625 1.53515625 8.203125 C1.09620271 10.49721795 0.59651408 12.74291971 0 15 C-0.99 15 -1.98 15 -3 15 C-2.68917128 13.24970238 -2.37626821 11.49977306 -2.0625 9.75 C-1.88847656 8.77546875 -1.71445312 7.8009375 -1.53515625 6.796875 C-1.09620271 4.50278205 -0.59651408 2.25708029 0 0 Z " fill="#1A3152" transform="translate(562,318)"/>
<path d="M0 0 C3 3 3 3 4 6 C3.01 6 2.02 6 1 6 C1 11.61 1 17.22 1 23 C0.67 23 0.34 23 0 23 C0 15.41 0 7.82 0 0 Z " fill="#DFEDFD" transform="translate(302,912)"/>
<path d="M0 0 C2.475 0.99 2.475 0.99 5 2 C4.67 3.65 4.34 5.3 4 7 C3.01 7.33 2.02 7.66 1 8 C0.01 7.01 -0.98 6.02 -2 5 C-1.67 4.360625 -1.34 3.72125 -1 3.0625 C0.07271225 1.23205433 0.07271225 1.23205433 0 0 Z " fill="#2072FC" transform="translate(641,899)"/>
<path d="M0 0 C2.97 0 5.94 0 9 0 C8.01 0.495 8.01 0.495 7 1 C7.33 2.32 7.66 3.64 8 5 C5.03 5 2.06 5 -1 5 C-0.34 4.01 0.32 3.02 1 2 C0.67 1.34 0.34 0.68 0 0 Z " fill="#035AFC" transform="translate(451,930)"/>
<path d="M0 0 C0.99 0.33 1.98 0.66 3 1 C0.03 3.97 -2.94 6.94 -6 10 C-6.66 9.34 -7.32 8.68 -8 8 C-5.36 5.36 -2.72 2.72 0 0 Z " fill="#192F4F" transform="translate(727,591)"/>
<path d="M0 0 C0.66 0 1.32 0 2 0 C1.6875 1.9375 1.6875 1.9375 1 4 C0.01 4.33 -0.98 4.66 -2 5 C-2.33 4.67 -2.66 4.34 -3 4 C-4.51165654 3.60851239 -6.03469632 3.26027543 -7.5625 2.9375 C-8.38878906 2.76089844 -9.21507812 2.58429687 -10.06640625 2.40234375 C-10.70449219 2.26957031 -11.34257813 2.13679687 -12 2 C-8.27320751 0.94695488 -4.86687856 1 -1 1 C-0.67 0.67 -0.34 0.34 0 0 Z " fill="#4688FB" transform="translate(953,927)"/>
<path d="M0 0 C0.98484375 0.10183594 1.9696875 0.20367188 2.984375 0.30859375 C4.10585937 0.43427734 4.10585937 0.43427734 5.25 0.5625 C5.25 0.8925 5.25 1.2225 5.25 1.5625 C0.96 2.2225 -3.33 2.8825 -7.75 3.5625 C-7.75 2.9025 -7.75 2.2425 -7.75 1.5625 C-8.41 1.2325 -9.07 0.9025 -9.75 0.5625 C-6.33860997 -0.53401823 -3.54344419 -0.37965473 0 0 Z " fill="#183052" transform="translate(1057.75,771.4375)"/>
<path d="M0 0 C1.67542976 0.28604898 3.34385343 0.61781233 5 1 C4.01 1.66 3.02 2.32 2 3 C1.27617533 5.05925139 1.27617533 5.05925139 1 7 C0.01 6.67 -0.98 6.34 -2 6 C-1.125 1.125 -1.125 1.125 0 0 Z " fill="#2C7BFC" transform="translate(936,926)"/>
<path d="M0 0 C3.82946843 1.45255699 5.12050295 3.42895561 7 7 C6.01 7 5.02 7 4 7 C0 2.65714286 0 2.65714286 0 0 Z " fill="#14284A" transform="translate(872,782)"/>
<path d="M0 0 C0.99 0.66 1.98 1.32 3 2 C2.2575 2.680625 2.2575 2.680625 1.5 3.375 C-0.22609337 4.87635519 -0.22609337 4.87635519 0 7 C-0.99 6.67 -1.98 6.34 -3 6 C-1.125 1.125 -1.125 1.125 0 0 Z " fill="#2675FB" transform="translate(623,926)"/>
<path d="M0 0 C2 4 2 4 1.8125 6.1875 C1.4103125 7.0846875 1.4103125 7.0846875 1 8 C0.01 8.33 -0.98 8.66 -2 9 C-1.34 6.03 -0.68 3.06 0 0 Z " fill="#354965" transform="translate(756,416)"/>
<path d="M0 0 C1.32 1.32 2.64 2.64 4 4 C3.01 4.33 2.02 4.66 1 5 C1 6.65 1 8.3 1 10 C0.67 10 0.34 10 0 10 C0 6.7 0 3.4 0 0 Z " fill="#EEF0F4" transform="translate(236,798)"/>
</svg>
